<?xml version="1.0" standalone="no"?>
<!DOCTYPE svg PUBLIC "-//W3C//DTD SVG 20010904//EN"
 "http://www.w3.org/TR/2001/REC-SVG-20010904/DTD/svg10.dtd">
<svg version="1.0" xmlns="http://www.w3.org/2000/svg"
 width="20px" height="20px" viewBox="0 0 512.000000 512.000000"
 preserveAspectRatio="xMidYMid meet">

<g transform="translate(0.000000,512.000000) scale(0.100000,-0.100000)"
fill="#ffffff" stroke="none">
<path d="M1921 4944 c-388 -115 -721 -309 -1010 -589 -383 -372 -616 -813
-713 -1352 -20 -112 -23 -160 -23 -393 0 -294 10 -378 70 -615 78 -304 217
-595 411 -855 92 -124 335 -371 449 -457 351 -264 720 -422 1140 -488 143 -23
435 -30 580 -16 420 43 788 174 1130 402 462 308 802 760 969 1289 58 182 45
248 -58 299 l-50 25 -130 -27 c-202 -41 -287 -50 -466 -50 -327 1 -616 68
-915 213 -841 408 -1317 1334 -1159 2255 8 49 22 117 30 150 26 101 -2 177
-80 214 -53 26 -71 26 -175 -5z"/>
</g>
</svg>
