<?xml version="1.0" standalone="no"?>
<!DOCTYPE svg PUBLIC "-//W3C//DTD SVG 20010904//EN"
 "http://www.w3.org/TR/2001/REC-SVG-20010904/DTD/svg10.dtd">
<svg version="1.0" xmlns="http://www.w3.org/2000/svg"
 width="20px" height="20px" viewBox="0 0 512.000000 512.000000"
 preserveAspectRatio="xMidYMid meet">

<g transform="translate(0.000000,512.000000) scale(0.100000,-0.100000)"
fill="#000000" stroke="none">
<path d="M2400 4731 l0 -390 -47 -6 c-324 -43 -620 -162 -860 -345 l-78 -59
-278 277 -277 277 -112 -113 -113 -112 277 -277 277 -278 -59 -78 c-183 -240
-302 -536 -345 -859 l-6 -48 -390 0 -389 0 0 -160 0 -160 389 0 390 0 6 -48
c43 -323 162 -619 345 -859 l59 -78 -277 -278 -277 -277 113 -112 112 -113
277 277 278 277 78 -59 c240 -183 536 -302 860 -345 l47 -6 0 -390 0 -389 160
0 160 0 0 389 0 390 48 6 c323 43 619 162 859 345 l78 59 278 -277 277 -277
112 113 113 112 -277 277 -277 278 59 78 c183 240 302 536 345 860 l6 47 390
0 389 0 0 160 0 160 -389 0 -390 0 -6 48 c-43 323 -162 619 -345 859 l-59 78
277 278 277 277 -113 112 -112 113 -277 -277 -278 -277 -78 59 c-240 183 -536
302 -859 345 l-48 6 0 390 0 389 -160 0 -160 0 0 -389z m0 -2171 c0 -1240 -2
-1460 -14 -1460 -36 0 -190 35 -276 62 -217 69 -409 187 -581 358 -133 132
-208 235 -284 387 -107 217 -149 401 -149 653 0 252 42 436 149 653 76 152
151 255 284 387 211 210 450 339 739 400 48 10 97 19 110 19 l22 1 0 -1460z"/>
</g>
</svg>
